<svg xmlns="http://www.w3.org/2000/svg" width="960" height="600" viewBox="0 0 960 600">
<rect width="100%" height="100%" fill="white"/>
<style>text{font-family:"Hiragino Sans","Yu Gothic",Arial,sans-serif;fill:#222}.title{font-size:28px;font-weight:700}.axis{font-size:16px}.tick{font-size:13px}.legend{font-size:14px}</style>
<text x="480.0" y="38" text-anchor="middle" class="title">得点総計のヒストグラム</text>
<line x1="80" y1="505.0" x2="920" y2="505.0" stroke="#ddd" stroke-width="1"/>
<text x="70" y="510.0" text-anchor="end" class="tick">0</text>
<line x1="80" y1="432.5" x2="920" y2="432.5" stroke="#ddd" stroke-width="1"/>
<text x="70" y="437.5" text-anchor="end" class="tick">5</text>
<line x1="80" y1="360.0" x2="920" y2="360.0" stroke="#ddd" stroke-width="1"/>
<text x="70" y="365.0" text-anchor="end" class="tick">10</text>
<line x1="80" y1="287.5" x2="920" y2="287.5" stroke="#ddd" stroke-width="1"/>
<text x="70" y="292.5" text-anchor="end" class="tick">15</text>
<line x1="80" y1="215.0" x2="920" y2="215.0" stroke="#ddd" stroke-width="1"/>
<text x="70" y="220.0" text-anchor="end" class="tick">20</text>
<line x1="80" y1="142.5" x2="920" y2="142.5" stroke="#ddd" stroke-width="1"/>
<text x="70" y="147.5" text-anchor="end" class="tick">25</text>
<line x1="80" y1="70.0" x2="920" y2="70.0" stroke="#ddd" stroke-width="1"/>
<text x="70" y="75.0" text-anchor="end" class="tick">30</text>
<line x1="80" y1="70" x2="80" y2="505" stroke="#222" stroke-width="1.5"/>
<line x1="80" y1="505" x2="920" y2="505" stroke="#222" stroke-width="1.5"/>
<rect x="80.0" y="490.5" width="67.8" height="14.5" fill="#4C78A8" stroke="#222" stroke-width="1"/>
<text x="113.9" y="482.5" text-anchor="middle" class="tick">1</text>
<text x="113.9" y="528" text-anchor="middle" class="tick">0-9</text>
<rect x="165.8" y="490.5" width="67.8" height="14.5" fill="#4C78A8" stroke="#222" stroke-width="1"/>
<text x="199.7" y="482.5" text-anchor="middle" class="tick">1</text>
<text x="199.7" y="528" text-anchor="middle" class="tick">10-19</text>
<rect x="251.6" y="490.5" width="67.8" height="14.5" fill="#4C78A8" stroke="#222" stroke-width="1"/>
<text x="285.5" y="482.5" text-anchor="middle" class="tick">1</text>
<text x="285.5" y="528" text-anchor="middle" class="tick">20-29</text>
<rect x="337.4" y="490.5" width="67.8" height="14.5" fill="#4C78A8" stroke="#222" stroke-width="1"/>
<text x="371.3" y="482.5" text-anchor="middle" class="tick">1</text>
<text x="371.3" y="528" text-anchor="middle" class="tick">30-39</text>
<rect x="423.2" y="490.5" width="67.8" height="14.5" fill="#4C78A8" stroke="#222" stroke-width="1"/>
<text x="457.1" y="482.5" text-anchor="middle" class="tick">1</text>
<text x="457.1" y="528" text-anchor="middle" class="tick">40-49</text>
<rect x="509.0" y="447.0" width="67.8" height="58.0" fill="#4C78A8" stroke="#222" stroke-width="1"/>
<text x="542.9" y="439.0" text-anchor="middle" class="tick">4</text>
<text x="542.9" y="528" text-anchor="middle" class="tick">50-59</text>
<rect x="594.8" y="360.0" width="67.8" height="145.0" fill="#4C78A8" stroke="#222" stroke-width="1"/>
<text x="628.7" y="352.0" text-anchor="middle" class="tick">10</text>
<text x="628.7" y="528" text-anchor="middle" class="tick">60-69</text>
<rect x="680.6" y="99.0" width="67.8" height="406.0" fill="#4C78A8" stroke="#222" stroke-width="1"/>
<text x="714.5" y="91.0" text-anchor="middle" class="tick">28</text>
<text x="714.5" y="528" text-anchor="middle" class="tick">70-79</text>
<rect x="766.4" y="403.5" width="67.8" height="101.5" fill="#4C78A8" stroke="#222" stroke-width="1"/>
<text x="800.3" y="395.5" text-anchor="middle" class="tick">7</text>
<text x="800.3" y="528" text-anchor="middle" class="tick">80-89</text>
<rect x="852.2" y="476.0" width="67.8" height="29.0" fill="#4C78A8" stroke="#222" stroke-width="1"/>
<text x="886.1" y="468.0" text-anchor="middle" class="tick">2</text>
<text x="886.1" y="528" text-anchor="middle" class="tick">90-100</text>
<line x1="660.5" y1="70" x2="660.5" y2="505" stroke="#D62728" stroke-width="3" stroke-dasharray="none"/>
<text x="666.5" y="88" class="legend" style="fill:#D62728;font-weight:700">平均 69.1</text>
<line x1="705.8" y1="70" x2="705.8" y2="505" stroke="#2CA02C" stroke-width="3" stroke-dasharray="8 5"/>
<text x="711.8" y="108" class="legend" style="fill:#2CA02C;font-weight:700">中央値 74.5</text>
<text x="480.0" y="572" text-anchor="middle" class="axis">得点</text>
<text transform="translate(24 287.5) rotate(-90)" text-anchor="middle" class="axis">人数</text>
<text x="920" y="572" text-anchor="end" class="legend">n=56, min=0, max=91, SD=17.1</text>
</svg>